<svg xmlns="http://www.w3.org/2000/svg" version="1.1" xmlns:xlink="http://www.w3.org/1999/xlink" width="512" height="512" x="0" y="0" viewBox="0 0 66 66" style="enable-background:new 0 0 512 512" xml:space="preserve" class=""><g><path d="M59.92 1.13H6.08c-2.68 0-4.86 2.18-4.86 4.86v40.89c0 2.68 2.18 4.86 4.86 4.86h17.95l-2.41 5.95h-3.47c-1.98 0-3.59 1.61-3.59 3.59s1.61 3.59 3.59 3.59h29.68c1.98 0 3.59-1.61 3.59-3.59s-1.61-3.59-3.59-3.59h-3.47l-2.41-5.95H59.9c2.68 0 4.86-2.18 4.86-4.86V5.99c.02-2.68-2.16-4.86-4.84-4.86zM49.69 61.28c0 1.02-.83 1.84-1.84 1.84H18.16c-1.02 0-1.84-.83-1.84-1.84s.83-1.84 1.84-1.84h29.68c1.02 0 1.85.83 1.85 1.84zm-7.2-3.59H23.51l2.41-5.95h14.15zm20.54-10.81c0 1.72-1.4 3.11-3.11 3.11H6.08c-1.72 0-3.11-1.4-3.11-3.11V5.99c0-1.72 1.4-3.11 3.11-3.11h53.83c1.72 0 3.11 1.4 3.11 3.11v40.89z" fill="#d60262" opacity="1" data-original="#000000" class=""></path><path d="M59.92 5.11H6.08c-.48 0-.88.39-.88.88v34.9c0 .48.39.88.88.88h53.83c.48 0 .88-.39.88-.88V5.99c0-.49-.39-.88-.87-.88zm-.88 34.91H6.96V6.86h52.08z" fill="#d60262" opacity="1" data-original="#000000" class=""></path><circle cx="33" cy="45.3" r="1" fill="#d60262" opacity="1" data-original="#000000" class=""></circle><path d="M19.46 29.61c5.65 0 10.25-4.6 10.25-10.25S25.11 9.11 19.46 9.11 9.21 13.71 9.21 19.37c0 5.65 4.6 10.24 10.25 10.24zm0-1.75a8.44 8.44 0 0 1-5.35-1.91l5.72-5.72h8.09c-.44 4.29-4.07 7.63-8.46 7.63zm8.46-9.37h-7.58v-7.58c3.99.41 7.17 3.59 7.58 7.58zm-9.33-7.58V19l-5.72 5.72a8.46 8.46 0 0 1-1.91-5.35c0-4.4 3.35-8.02 7.63-8.46zM32.51 37.76h4.8c.48 0 .88-.39.88-.88v-9.15c0-.48-.39-.88-.88-.88h-4.8c-.48 0-.88.39-.88.88v9.15c0 .49.39.88.88.88zm.87-9.15h3.05v7.4h-3.05zM46.11 20.86h-4.8c-.48 0-.88.39-.88.88v15.15c0 .48.39.88.88.88h4.8c.48 0 .88-.39.88-.88V21.73a.886.886 0 0 0-.88-.87zm-.88 15.15h-3.05v-13.4h3.05zM54.91 29.87h-4.8c-.48 0-.88.39-.88.88v6.15c0 .48.39.88.88.88h4.8c.48 0 .88-.39.88-.88v-6.15c0-.49-.39-.88-.88-.88zm-.87 6.14h-3.05v-4.4h3.05zM10.09 33.56H26c.48 0 .88-.39.88-.88s-.39-.88-.88-.88H10.09c-.48 0-.88.39-.88.88s.39.88.88.88zM10.09 37.76h9.37c.48 0 .88-.39.88-.88s-.39-.88-.88-.88h-9.37c-.48 0-.88.39-.88.88s.39.88.88.88z" fill="#d60262" opacity="1" data-original="#000000" class=""></path><path d="M32.51 22.61c.22 0 .45-.08.62-.26l8.41-8.41 7.95 7.95c.34.34.9.34 1.24 0l4.7-4.7v.65c0 .48.39.88.88.88s.88-.39.88-.88v-2.91c0-.48-.39-.88-.88-.88H53.4c-.48 0-.88.39-.88.88s.39.88.88.88h.95l-4.23 4.23-7.95-7.95a.881.881 0 0 0-1.24 0l-9.03 9.03c-.34.34-.34.9 0 1.24.16.16.38.25.61.25z" fill="#d60262" opacity="1" data-original="#000000" class=""></path></g></svg>